# Blender v2.82 (sub 7) OBJ File: ''
# www.blender.org
mtllib cornell.mtl
o Cube
v 0.275693 0.012465 1.015340
v 0.275693 0.670431 1.015340
v 0.016723 0.670431 0.410482
v 0.016723 0.012465 0.410482
v 0.621581 0.670431 0.151512
v 0.621581 0.012465 0.151512
v 0.880551 0.670431 0.756370
v 0.880551 0.012465 0.756370
vt 0.375000 0.000000
vt 0.625000 0.000000
vt 0.625000 0.250000
vt 0.375000 0.250000
vt 0.625000 0.500000
vt 0.375000 0.500000
vt 0.625000 0.750000
vt 0.375000 0.750000
vt 0.625000 1.000000
vt 0.375000 1.000000
vt 0.125000 0.500000
vt 0.125000 0.750000
vt 0.875000 0.500000
vt 0.875000 0.750000
vn -0.9193 -0.0000 0.3936
vn -0.3936 0.0000 -0.9193
vn 0.9193 0.0000 -0.3936
vn 0.3936 0.0000 0.9193
vn -0.0000 -1.0000 -0.0000
vn 0.0000 1.0000 0.0000
usemtl diff_white
s 1
f 1/1/1 2/2/1 3/3/1 4/4/1
f 4/4/2 3/3/2 5/5/2 6/6/2
f 6/6/3 5/5/3 7/7/3 8/8/3
f 8/8/4 7/7/4 2/9/4 1/10/4
f 4/11/5 6/6/5 8/8/5 1/12/5
f 5/5/6 3/13/6 2/14/6 7/7/6
o Cube.001
v 1.000000 2.004732 -0.794163
v -1.000000 2.004732 -0.794163
v -1.000000 2.004732 1.205837
v 1.000000 2.004732 1.205837
v -1.000000 0.004732 1.205837
v -1.000000 0.004732 -0.794163
v 1.000000 0.004732 -0.794163
v 1.000000 0.004732 1.205837
vt 0.625000 0.500000
vt 0.875000 0.500000
vt 0.875000 0.750000
vt 0.625000 0.750000
vt 0.375000 0.000000
vt 0.625000 0.000000
vt 0.625000 0.250000
vt 0.375000 0.250000
vt 0.125000 0.500000
vt 0.375000 0.500000
vt 0.375000 0.750000
vt 0.125000 0.750000
vt 0.625000 1.000000
vt 0.375000 1.000000
vn 0.0000 1.0000 0.0000
vn -1.0000 -0.0000 0.0000
vn 0.0000 -1.0000 -0.0000
vn 0.0000 -0.0000 1.0000
vn 0.0000 0.0000 -1.0000
usemtl diff_white
s 1
f 9/15/7 10/16/7 11/17/7 12/18/7
f 13/19/8 11/20/8 10/21/8 14/22/8
f 14/23/9 15/24/9 16/25/9 13/26/9
usemtl diff_red
f 16/25/10 12/18/10 11/27/10 13/28/10
usemtl diff_green
f 14/22/11 10/21/11 9/15/11 15/24/11
o Cube.002
v -0.708603 0.010415 -0.005365
v -0.708603 1.405708 -0.005365
v -0.437288 1.405708 -0.512519
v -0.437288 0.010415 -0.512519
v 0.069866 1.405708 -0.241204
v 0.069866 0.010415 -0.241204
v -0.201449 1.405708 0.265950
v -0.201449 0.010415 0.265950
vt 0.375000 0.000000
vt 0.625000 0.000000
vt 0.625000 0.250000
vt 0.375000 0.250000
vt 0.625000 0.500000
vt 0.375000 0.500000
vt 0.625000 0.750000
vt 0.375000 0.750000
vt 0.625000 1.000000
vt 0.375000 1.000000
vt 0.125000 0.500000
vt 0.125000 0.750000
vt 0.875000 0.500000
vt 0.875000 0.750000
vn -0.8818 0.0000 -0.4717
vn 0.4717 0.0000 -0.8818
vn 0.8818 -0.0000 0.4717
vn -0.4717 -0.0000 0.8818
vn 0.0000 -1.0000 -0.0000
vn 0.0000 1.0000 0.0000
usemtl diff_white
s 1
f 17/29/12 18/30/12 19/31/12 20/32/12
f 20/32/13 19/31/13 21/33/13 22/34/13
f 22/34/14 21/33/14 23/35/14 24/36/14
f 24/36/15 23/35/15 18/37/15 17/38/15
f 20/39/16 22/34/16 24/36/16 17/40/16
usemtl emit_white
f 21/33/17 19/41/17 18/42/17 23/35/17
